<svg width="224" height="180" viewBox="0 0 224 180" fill="none" xmlns="http://www.w3.org/2000/svg">
<mask id="mask0_1:71" style="mask-type:alpha" maskUnits="userSpaceOnUse" x="0" y="0" width="224" height="180">
<rect width="224" height="180" fill="#C4C4C4"/>
</mask>
<g mask="url(#mask0_1:71)">
<circle cx="112" cy="68" r="112" fill="#D42F34"/>
<rect width="224" height="68" fill="#D42F34"/>
<path fill-rule="evenodd" clip-rule="evenodd" d="M85.2394 76.5863C79.1335 83.9851 77.1786 96.3451 76.9573 101.686C76.9237 102.313 76.9067 102.946 76.9067 103.582C76.9067 122.861 92.5349 138.489 111.813 138.489C131.092 138.489 146.72 122.861 146.72 103.582C146.72 98.0749 145.445 92.8655 143.173 88.2332L143.174 88.2172L143.174 88.1914L143.093 88.0703L143.059 88.0021H143.047C142.375 87.001 141.762 86.1149 141.205 85.3087L141.205 85.3086C138.851 81.9041 137.482 79.9235 136.758 76.7103C134.95 69.6223 136.23 63.5091 136.974 59.9532L136.974 59.9531C137.219 58.7832 137.406 57.8901 137.406 57.3302C124.485 68.3308 126.434 79.3036 127.483 85.2141L127.483 85.2141C127.683 86.3381 127.85 87.2789 127.876 88.0021H127.772C122.77 79.1696 123.896 71.2865 124.411 67.6822L124.441 67.4713L124.467 67.2903C128.298 39.9425 109.686 27.8437 103.663 23.928C103.224 23.6428 102.852 23.4011 102.561 23.2C108.238 33.4665 114.67 51.0795 107.05 61.0396C100.557 69.5256 99.6909 71.2033 97.9318 74.61C97.6263 75.2017 97.2938 75.8455 96.9002 76.5863C99.8461 63.8374 90.3538 51.7968 85.2394 47.3702C87.7966 54.0102 91.3767 69.1495 85.2394 76.5863ZM111.539 121.968C121.457 121.968 129.497 113.928 129.497 104.01C129.497 94.0921 121.457 86.0521 111.539 86.0521C101.622 86.0521 93.5817 94.0921 93.5817 104.01C93.5817 113.928 101.622 121.968 111.539 121.968Z" fill="#2B2E34"/>
<path d="M108.82 151.114C109.136 142.902 102.108 137.427 98.555 135.717L100.134 128.216L131.323 123.478L132.902 128.216C130.139 127.952 130.139 129.795 121.848 136.901C113.866 143.742 116.321 145.587 112.768 151.114C109.214 156.641 108.82 153.482 108.82 151.114Z" fill="#2B2E34"/>
</g>
</svg>
